{"title":"Lingaa (2014) Hindi - Untouched  360p WEBHD x264 AVC 2CH ESUBS -","uid":12022012,"size":1585162866,"categoryP":"video","categoryS":"movies","magnet":"?xt=urn:btih:5abcdba30f401ef6843f037fb7142e536ec04e96&amp;dn=Lingaa+%282014%29+Hindi+-+Untouched++360p+WEBHD+x264+AVC+2CH+ESUBS+-&amp;tr=udp%3A%2F%2Ftracker.openbittorrent.com%3A80&amp;tr=udp%3A%2F%2Fopen.demonii.com%3A1337&amp;tr=udp%3A%2F%2Ftracker.coppersurfer.tk%3A6969&amp;tr=udp%3A%2F%2Fexodus.desync.com%3A6969","seeders":0,"leechers":1,"uploader":"SS132203","files":2,"time":1434414060,"description":"Lingaa (2014) Hindi - Untouched  360p WEBHD x264 AVC 2CH ESUBS - Team Telly Exclusive \n &lt;a href=&quot;\nhttp://imgsparrow.co/image/hT&quot; rel=&quot;nofollow&quot; target=&quot;_NEW&quot;&gt;\nhttp://imgsparrow.co/image/hT&lt;/a&gt;\n &lt;a href=&quot;\nhttp://imgsparrow.co/image/A8&quot; rel=&quot;nofollow&quot; target=&quot;_NEW&quot;&gt;\nhttp://imgsparrow.co/image/A8&lt;/a&gt;\n\nInfo : - \n\nAll Credit Goes To Team Telly (Thank Them Not Me)\n\nFormat : MPEG-TS\nFile size : 1.48 GiB\nDuration : 2h 28mn\nOverall bit rate : 1 425 Kbps\n\nVideo\nID : 256 (0x100)\nMenu ID : 1 (0x1)\nFormat : AVC\nFormat/Info : Advanced Video Codec\nFormat profile : &lt;a class=&quot;__cf_email__&quot; href=&quot;/cdn-cgi/l/email-protection&quot; data-cfemail=&quot;c68eafa1ae868af5e8f6&quot;&gt;[email&amp;#160;protected]&lt;/a&gt;&lt;script data-cfhash='f9e31' type=&quot;text/javascript&quot;&gt;\n/* &lt;![CDATA[ */!function(){try{var t=&quot;currentScript&quot;in document?document.currentScript:function(){for(var t=document.getElementsByTagName(&quot;script&quot;),e=t.length;e--;)if(t[e].getAttribute(&quot;data-cfhash&quot;))return t[e]}();if(t&amp;&amp;t.previousSibling){var e,r,n,i,c=t.previousSibling,a=c.getAttribute(&quot;data-cfemail&quot;);if(a){for(e=&quot;&quot;,r=parseInt(a.substr(0,2),16),n=2;a.length-n;n+=2)i=parseInt(a.substr(n,2),16)^r,e+=String.fromCharCode(i);e=document.createTextNode(e),c.parentNode.replaceChild(e,c)}t.parentNode.removeChild(t);}}catch(u){}}()/* ]]&gt; */&lt;/script&gt;\nFormat settings, CABAC : Yes\nFormat settings, ReFrames : 4 frames\nFormat settings, GOP : M=4, N=30\nCodec ID : 27\nDuration : 2h 28mn\nBit rate : 1 306 Kbps\nNominal bit rate : 1 228 Kbps\nWidth : 640 pixels\nHeight : 360 pixels\nDisplay aspect ratio : 16:9\nFrame rate mode : Variable\nColor space : YUV\nChroma subsampling : 4:2:0\nBit depth : 8 bits\nScan type : Progressive\nStream size : 1.35 GiB (92%)\nWriting library : x264 core 133 r2 a3ac64b\n\nAudio\nID : 257 (0x101)\nMenu ID : 1 (0x1)\nFormat : AAC\nFormat/Info : Advanced Audio Codec\nFormat version : Version 4\nFormat profile : LC\nMuxing mode : ADTS\nCodec ID : 15\nDuration : 2h 28mn\nBit rate mode : Constant / Variable\nBit rate : 48.0 Kbps\nMinimum bit rate : 47.6 Kbps\nMaximum bit rate : 49.5 Kbps\nChannel(s) : 2 channels\nChannel positions : Front: L R\nSampling rate : 48.0 KHz\nCompression mode : Lossy\nDelay relative to video : -42ms\nStream size : 50.9 MiB (3%)\n\nScreens : - \n &lt;a href=&quot;\nhttp://imgsparrow.co/image/Aw&quot; rel=&quot;nofollow&quot; target=&quot;_NEW&quot;&gt;\nhttp://imgsparrow.co/image/Aw&lt;/a&gt; &lt;a href=&quot;\nhttp://imgsparrow.co/image/A4&quot; rel=&quot;nofollow&quot; target=&quot;_NEW&quot;&gt;\nhttp://imgsparrow.co/image/A4&lt;/a&gt; &lt;a href=&quot;\nhttp://imgsparrow.co/image/AH&quot; rel=&quot;nofollow&quot; target=&quot;_NEW&quot;&gt;\nhttp://imgsparrow.co/image/AH&lt;/a&gt; &lt;a href=&quot;\nhttp://imgsparrow.co/image/AT&quot; rel=&quot;nofollow&quot; target=&quot;_NEW&quot;&gt;\nhttp://imgsparrow.co/image/AT&lt;/a&gt; &lt;a href=&quot;\nhttp://imgsparrow.co/image/Ab&quot; rel=&quot;nofollow&quot; target=&quot;_NEW&quot;&gt;\nhttp://imgsparrow.co/image/Ab&lt;/a&gt; &lt;a href=&quot;\nhttp://imgsparrow.co/image/Ah&quot; rel=&quot;nofollow&quot; target=&quot;_NEW&quot;&gt;\nhttp://imgsparrow.co/image/Ah&lt;/a&gt; &lt;a href=&quot;\nhttp://imgsparrow.co/image/Aj&quot; rel=&quot;nofollow&quot; target=&quot;_NEW&quot;&gt;\nhttp://imgsparrow.co/image/Aj&lt;/a&gt; &lt;a href=&quot;\nhttp://imgsparrow.co/image/Ar&quot; rel=&quot;nofollow&quot; target=&quot;_NEW&quot;&gt;\nhttp://imgsparrow.co/image/Ar&lt;/a&gt;\n &lt;a href=&quot;\nhttp://imgsparrow.co/image/N2&quot; rel=&quot;nofollow&quot; target=&quot;_NEW&quot;&gt;\nhttp://imgsparrow.co/image/N2&lt;/a&gt;","torrent":{"xt":"urn:btih:5abcdba30f401ef6843f037fb7142e536ec04e96","amp;dn":"Lingaa+%282014%29+Hindi+-+Untouched++360p+WEBHD+x264+AVC+2CH+ESUBS+-","amp;tr":["udp%3A%2F%2Ftracker.openbittorrent.com%3A80","udp%3A%2F%2Fopen.demonii.com%3A1337","udp%3A%2F%2Ftracker.coppersurfer.tk%3A6969","udp%3A%2F%2Fexodus.desync.com%3A6969"],"infoHash":"5abcdba30f401ef6843f037fb7142e536ec04e96","infoHashBuffer":{"type":"Buffer","data":[90,188,219,163,15,64,30,246,132,63,3,127,183,20,46,83,110,192,78,150]},"announce":[],"urlList":[]}}